Patient4_TMGait_0pt6_02_left_02_EMG.mot
version=1
nRows=30
nColumns=33
inDegrees=no
endheader
time	1LAddLong	2LGlutMax	3LGlutMed	4LIliopsoas	5LSemiMemb	6LBicFemLong	7LRecFem	8LVastMed	9LVastLat	10LGasMed	11LTibAnt	12lTibPost	13LPeroneusLong	14LSol	15LExtDigLong	16LFlexDigLong	17RAddLong	18RGlutMax	19RGlutMed	20RIliopsoas	21RSemiMemb	22RBicFemLong	23RRecFem	24RVastMed	25RVastLat	26RGasMed	27RTibAnt	28RTibPost	29RPeroneusLong	30RSol	31RExtDigLong	32RFlexDigLong
2.71	0.031281	1.03	-0.066681	0.032501	-0.051727	-0.24933	-0.085602	0.03479	-0.17059	0.008392	-0.057068	0.035553	1.1575	0.14114	-0.327	0.028076	0.026245	0.30853	0.06897	-0.24582	-0.14969	-0.38437	0.37231	-0.047455	-0.05249	0.023651	0.049133	0.002899	-0.068054	-0.19836	-0.006561	-0.019684
2.711	0.041962	0.9407	-0.1416	0.013428	0.044098	-0.08255	-0.088501	0.002747	-0.12589	0.013123	-0.03067	0.028381	-0.75928	-0.026855	-0.12253	0.037079	0.025024	0.27313	0.039978	-0.26901	-0.11612	-0.345	0.33615	0.020752	-0.050354	0.02243	0.042267	-0.00412	0.047302	-0.17456	-0.000458	-0.018768
2.712	0.032654	0.92911	-0.15396	0.006409	0.10513	0.12131	-0.14252	-0.01358	-0.08255	-0.06546	-0.022888	0.043945	-1.6663	-0.096436	0.14847	0.038605	-0.00946	0.23514	0.10971	-0.25085	-0.095825	-0.22385	0.28061	0.05188	-0.040894	0.017242	0.065002	-0.002899	0.11551	-0.14053	0.000916	-0.007629
2.713	0.026245	0.87036	0.020752	0.034943	0.078278	0.27039	-0.21561	-0.005951	-0.011597	-0.053101	0.001526	0.044403	-1.2292	-0.25223	0.13336	0.031738	-0.020142	0.15182	0.14297	-0.17685	-0.061035	-0.16098	0.26001	0.071564	-0.01709	0.019684	0.063629	-0.003967	0.14862	-0.13473	-0.002289	-0.018005
2.714	0.003662	0.83786	0.20004	0.030975	-0.021973	0.31662	-0.17563	0.001068	0.043182	0.00946	0	0.046539	-0.30014	-0.32654	0.01236	0.02655	-0.020752	0.11734	0.26657	-0.079651	-0.010681	-0.18646	0.25391	0.13199	-0.008392	0.022278	0.054932	-0.002441	0.099792	-0.11276	-0.005188	-0.014648
2.715	0.007629	0.82413	0.11047	0.026245	-0.098114	0.27252	-0.075989	0.014191	-0.031128	0.032959	-0.01358	0.049438	-0.10117	-0.22522	0.079803	0.041962	0.002136	0.032043	0.23209	0.014648	0.0354	-0.17563	0.24796	0.10574	-0.002594	0.018311	0.057526	0.000763	-0.063934	-0.073547	-0.005035	-0.012054
2.716	0.010681	0.80963	0.10986	0.010223	-0.088348	0.15427	-0.13275	0.018768	-0.09613	0.040283	0.10208	0.046387	-0.1384	-0.13245	0.12604	0.025635	0.036163	-0.036621	0.084534	0.12329	0.062103	-0.18112	0.27954	0.12268	-0.003662	0.018005	0.045013	0.004883	-0.11368	-0.058289	-0.000305	-0.008392
2.717	0.016937	0.78751	0.18387	0.000153	-0.023804	0.053253	-0.15701	0.027161	-0.052643	0.045776	0.059204	0.06012	-0.081024	-0.10284	0.10727	0.041504	0.031128	-0.095367	-0.10849	0.2272	0.01236	-0.1828	0.31097	0.1387	-0.006714	0.015869	0.033264	0.000153	-0.066376	-0.11215	-0.002136	-0.005035
2.718	0.021973	0.76828	0.10712	0.032501	-0.043335	-0.22598	-0.12497	-0.002136	-0.041504	0.05188	0.050964	0.056152	-0.085449	-0.17624	0.055847	0.019989	0.043335	-0.14801	-0.050354	0.21118	0.005035	-0.16724	0.30975	0.14801	0.019379	0.014954	0.017395	-0.002289	-0.041199	-0.16327	0.00061	0.001678
2.719	0.007477	0.7251	0.038452	0.043793	-0.071716	-0.36163	-0.12314	-0.000763	-0.072632	0.044861	0.03006	0.06424	-0.007782	-0.15976	0.10239	0.017548	0.094604	-0.24475	-0.027618	0.13794	0.045929	-0.13351	0.29159	0.10696	-0.017548	0.016479	0.013275	-0.003204	-0.002136	-0.16312	-0.004578	-0.003052
2.72	0.016632	0.7045	0.1831	0.016479	-0.084534	-0.26367	-0.23025	0.00351	0.037079	0.024567	0.014801	0.064087	0.032501	-0.074463	0.25207	0.014191	0.12466	-0.23483	0.11231	0.087891	0.068512	-0.16846	0.29572	0.076752	-0.018463	0.006866	0.006561	0.005798	0.11765	-0.12192	-0.001068	-0.000153
2.721	0.015869	0.72006	0.2002	-0.002441	-0.094452	-0.048523	-0.24216	-0.001678	0.12604	0.00351	0.011749	0.060425	-0.17075	-0.12726	0.21011	0.006714	0.15259	-0.20447	0.20111	0.080566	0.067444	-0.21194	0.27039	-0.007172	-0.032349	0.014496	0.04837	-0.002441	0.12299	-0.092621	-0.00412	0.002136
2.722	0.029449	0.69275	0.18143	-0.010834	0.001221	0.24033	-0.21973	0.005646	0.072021	-0.018158	0.024872	0.055237	-0.17654	-0.17929	0.39566	0.00473	0.14923	-0.12985	0.13123	0.13397	0.042267	-0.18921	0.2533	-0.050201	-0.024414	0.002289	0.11932	0.000916	0.039673	-0.10559	0.003967	0.007172
2.723	0.020599	0.62759	0.15503	-0.00824	-0.004425	0.38513	-0.2002	0.024414	0.04364	-0.024109	0.068817	0.057678	-0.13763	-0.14404	-0.11261	0.001984	0.14313	-0.11444	0.090485	0.15778	0.007324	-0.20096	0.30853	-0.13351	-0.027924	0.011139	0.11047	-0.003967	-0.04776	-0.099335	-0.004425	-0.003815
2.724	0.018158	0.57159	0.15579	-0.006714	0.023499	0.25803	-0.23789	0.021362	0.12573	0.003052	0.046387	0.053711	-0.31281	-0.18585	-0.10361	0.005188	0.13855	-0.10681	0.10605	0.16953	-0.000916	-0.26245	0.39322	-0.14114	-0.031738	0.016327	0.063171	0.002441	-0.05661	-0.07843	-0.002747	-0.011902
2.725	0.014343	0.51743	0.11261	0.003357	0.014801	0.15442	-0.31464	0.016022	0.18951	-0.028534	0.027466	0.047302	-0.52933	-0.35095	-0.1004	-0.00885	0.051422	-0.1059	0.06897	0.1149	-0.018463	-0.32837	0.38544	-0.16083	-0.024567	0.013275	0.045624	-0.005798	-0.013123	-0.083771	-0.004425	-0.009155
2.726	0.007172	0.49591	0.098114	0.00412	0.023041	0.20432	-0.24475	0.002899	0.11627	0.017395	0.030518	0.046387	-0.11414	-0.24628	-0.027008	-0.002747	0.037842	-0.055084	0.10727	0.1535	-0.03479	-0.35767	0.30762	-0.16815	0.004883	0.014801	0.029907	0.003815	0.06012	-0.083008	-0.004578	-0.012512
2.727	0.002441	0.47623	-0.002289	-0.005035	-0.000305	0.070801	-0.20126	0.024109	-0.009155	0.027313	-0.002899	0.046387	0.035095	-0.088196	-0.045013	-0.02182	0.03479	0.015564	0.085602	0.15335	-0.041656	-0.35843	0.35568	-0.17532	0.020294	0.007935	0.026398	-0.002747	0.089111	-0.048981	-0.005493	-0.014343
2.728	0.006866	0.44876	-0.031281	0.012207	-0.028992	-0.4184	-0.32303	0.0354	-0.023193	0.073853	0.016632	0.037537	-0.13031	-0.071716	-0.034637	-0.015106	-0.059967	0.094604	0.1181	-0.11108	-0.040588	-0.35477	0.42175	-0.1741	0.025787	0.005035	0.019226	0.00061	0.089569	-0.028992	-0.00061	-0.012665
2.729	-0.000458	0.39215	-0.034637	-0.013733	-0.11002	-0.5629	-0.37262	0.033264	0.00885	0.075226	0.039368	0.031891	0.067902	-0.006561	-0.018311	-0.02655	-0.099792	0.18295	-0.037689	-0.21164	-0.015106	-0.36407	0.40695	-0.16281	0.015564	0.002594	0.009155	-0.005188	0.04776	-0.02533	-0.001678	-0.017395
2.73	-0.010529	0.40604	-0.011444	-0.012512	-0.21362	-0.32806	-0.25665	0.026093	-0.032196	0.029602	0.040588	0.026398	0.16525	0.065155	0.001831	-0.022888	-0.11597	0.18738	-0.030365	-0.14008	0.063019	-0.32379	0.30319	-0.089264	-0.00351	0.000458	0.011292	0.002136	-0.042572	-0.018005	-0.00412	-0.008545
2.731	-0.007172	0.47791	-0.036621	0.002899	-0.23453	-0.22842	-0.1828	0.014954	-0.14862	0.009003	0.0177	0.016174	-0.055237	0.10513	0.070496	-0.002747	-0.14923	0.23285	0.051117	0.04837	0.097656	-0.33691	0.28732	-0.082703	0.01297	-0.008545	0.049438	0.001221	-0.11246	-0.027313	-0.00412	-0.007324
2.732	0.001526	0.54825	-0.012054	0.024872	-0.21179	-0.079803	-0.14786	0.006409	-0.11063	-0.0177	0.003815	0.011749	-0.14358	0.075836	0.058136	-0.004425	-0.13947	0.18341	0.020294	0.42053	0.065002	-0.39612	0.30395	-0.034332	0.001068	0.006561	0.097046	-0.000153	-0.11734	-0.008698	-0.004272	-0.005951
2.733	0.020142	0.51651	0.097504	0	-0.066833	-0.014038	-0.090332	-0.007629	0	0.028381	0.003052	0.00946	0.028381	0.13123	0.02243	-0.006104	-0.11002	0.15793	-0.038757	0.43793	0.044098	-0.47424	0.32577	-0.075836	-0.011902	0.007477	0.11536	0.006256	-0.098419	-0.00061	-0.001526	-0.001678
2.734	0.031433	0.49759	0.064697	0.002899	0.10452	0.02243	-0.033875	-0.016785	0.027924	0.032806	0.007629	0.002136	0.18448	0.21683	0.016174	0.005341	-0.10208	0.19714	0.13428	0.20508	0.085754	-0.43076	0.31326	-0.089111	0.002136	0.006409	0.10941	0.002289	-0.092773	-0.02594	-0.005493	0.000305
2.735	0.052338	0.38788	-0.078888	0.018158	0.10834	0.096741	-0.031433	-0.018768	0.11017	-0.010834	0.002136	-0.003204	0.069427	0.15854	-0.014191	0.014343	-0.10391	0.1413	0.29236	0.091705	0.099487	-0.2945	0.30792	-0.089264	0.008698	0.001831	0.099487	-0.003052	-0.090027	-0.074005	-0.002136	-0.002441
2.736	0.059662	0.37659	-0.15564	0.009308	0.064545	0.1384	-0.036621	-0.015411	0.14557	-0.004272	0.009003	-0.007629	0.019226	0.20905	-0.042419	0.01236	-0.06485	0.083466	0.30594	0.13428	0.09552	-0.23254	0.33142	-0.043488	-0.013885	-0.000763	0.086212	-0.005341	-0.032959	-0.082703	-0.005035	0.000458
2.737	0.049744	0.39246	-0.1976	0.011139	0.15762	0.16602	0.003662	-0.025024	0.019836	-0.055695	-0.010681	-0.015411	0.21316	0.36224	0.050507	0.003204	-0.043945	0.063629	0.13687	0.19196	0.045013	-0.21713	0.39825	0.020294	-0.020142	0.000153	0.062256	-0.002747	0.016174	-0.076752	-0.003204	0.005341
2.738	0.038147	0.39017	-0.15869	-0.006104	0.11414	0.08667	0.057831	-0.019836	-0.052948	-0.048676	-0.019836	-0.027466	-0.24155	0.1709	-0.008698	0.014801	-0.06485	0.04776	-0.005035	0.15579	-0.016479	-0.090485	0.43091	-0.050964	-0.031586	0.003052	0.053101	0.001373	0.011597	-0.071106	-0.005188	0.001526
2.739	0.02243	0.35126	0.065765	-0.010529	0.066681	0.22369	0.12573	-0.005493	-0.043945	-0.045624	-0.037079	-0.023041	-0.11276	0.097961	-0.0354	0.026703	-0.089417	0.056152	0.03952	0.025177	-0.02121	-0.014038	0.41733	-0.088959	-0.024872	0.000763	-0.056915	-0.005798	0.047913	-0.076599	-0.00473	0.000763
